# xmcd
#
# Track frame offsets:
# 150
# 13778
# 32955
# 42175
# 63298
# 76860
# 95281
# 109243
# 141947
# 151218
# 169300
# 179070
# 196909
# 207808
# 222678
# 229816
# 236303
# 241850
# 252864
#
# Disc length: 3554 seconds
#
#
# Revision: 0
# Processed by: cddbd v1.5PL3 Copyright (c) Steve Scherf et al.
# Submitted via: FreeRIP 2.60 
#
DISCID=050de013
DTITLE=Georges Brassens - 
DYEAR=1900
DGENRE=Chanson
TTITLE0=L'auvergnat
TTITLE1=La non demande en mariage
TTITLE2=J'ai rendez-vous avec vous
TTITLE3=Mourir pour des idées
TTITLE4=Les amoureux des bancs publics
TTITLE5=La femme d'Hector
TTITLE6=Auprès de mon arbre
TTITLE7=Supplique pour être enterré à la plage de Sète
TTITLE8=La chasse aux papillons
TTITLE9=Les copains d'abord
TTITLE10=Gastibelza, l'homme à la carabine
TTITLE11=Le testament
TTITLE12=Le nombril des femmes d'agent
TTITLE13=Brave Margot
TTITLE14=Pauvre Martin
TTITLE15=La cane de Jeanne
TTITLE16=Le vent
TTITLE17=Il n'y a pas d'amour heureux
TTITLE18=La prière
EXTD=
EXTT0=
EXTT1=
EXTT2=
EXTT3=
EXTT4=
EXTT5=
EXTT6=
EXTT7=
EXTT8=
EXTT9=
EXTT10=
EXTT11=
EXTT12=
EXTT13=
EXTT14=
EXTT15=
EXTT16=
EXTT17=
EXTT18=
PLAYORDER=
